<mxfile host="Electron" agent="Mozilla/5.0 (Windows NT 10.0; Win64; x64) AppleWebKit/537.36 (KHTML, like Gecko) draw.io/28.2.8 Chrome/140.0.7339.240 Electron/38.4.0 Safari/537.36" version="28.2.8">
  <diagram name="Page-1" id="3ko4D0awMjVaXnexq7fm">
    <mxGraphModel dx="837" dy="509" grid="1" gridSize="10" guides="1" tooltips="1" connect="1" arrows="1" fold="1" page="1" pageScale="1" pageWidth="850" pageHeight="1100" math="0" shadow="0">
      <root>
        <mxCell id="0" />
        <mxCell id="1" parent="0" />
        <mxCell id="zpxudrFcBU-MMzCYJGep-6" style="edgeStyle=none;curved=1;rounded=0;orthogonalLoop=1;jettySize=auto;html=1;entryX=0.5;entryY=0;entryDx=0;entryDy=0;fontSize=12;startSize=8;endSize=8;endArrow=none;endFill=0;exitX=1;exitY=0.3333333333333333;exitDx=0;exitDy=0;exitPerimeter=0;" parent="1" source="ZmAE418go0qRpAvOEASp-1" target="zpxudrFcBU-MMzCYJGep-8" edge="1">
          <mxGeometry relative="1" as="geometry">
            <mxPoint x="290" y="280" as="targetPoint" />
          </mxGeometry>
        </mxCell>
        <mxCell id="zpxudrFcBU-MMzCYJGep-12" style="edgeStyle=none;curved=1;rounded=0;orthogonalLoop=1;jettySize=auto;html=1;entryX=0;entryY=0.5;entryDx=0;entryDy=0;fontSize=12;startSize=8;endSize=8;endArrow=none;endFill=0;exitX=0;exitY=0.3333333333333333;exitDx=0;exitDy=0;exitPerimeter=0;" parent="1" source="ZmAE418go0qRpAvOEASp-1" target="zpxudrFcBU-MMzCYJGep-9" edge="1">
          <mxGeometry relative="1" as="geometry" />
        </mxCell>
        <mxCell id="zpxudrFcBU-MMzCYJGep-16" style="edgeStyle=none;curved=1;rounded=0;orthogonalLoop=1;jettySize=auto;html=1;exitX=1;exitY=0.3333333333333333;exitDx=0;exitDy=0;exitPerimeter=0;entryX=0.5;entryY=0;entryDx=0;entryDy=0;fontSize=12;startSize=8;endSize=8;endArrow=none;endFill=0;" parent="1" source="ZmAE418go0qRpAvOEASp-1" target="zpxudrFcBU-MMzCYJGep-10" edge="1">
          <mxGeometry relative="1" as="geometry" />
        </mxCell>
        <mxCell id="zpxudrFcBU-MMzCYJGep-18" style="edgeStyle=none;curved=1;rounded=0;orthogonalLoop=1;jettySize=auto;html=1;fontSize=12;startSize=8;endSize=8;endArrow=none;endFill=0;" parent="1" edge="1">
          <mxGeometry relative="1" as="geometry">
            <mxPoint x="370" y="90" as="sourcePoint" />
            <mxPoint x="470" y="430" as="targetPoint" />
            <Array as="points">
              <mxPoint x="390" y="270" />
            </Array>
          </mxGeometry>
        </mxCell>
        <mxCell id="zpxudrFcBU-MMzCYJGep-32" style="edgeStyle=none;curved=1;rounded=0;orthogonalLoop=1;jettySize=auto;html=1;exitX=0;exitY=0.3333333333333333;exitDx=0;exitDy=0;exitPerimeter=0;entryX=0.5;entryY=0;entryDx=0;entryDy=0;fontSize=12;startSize=8;endSize=8;endArrow=none;endFill=0;" parent="1" source="ZmAE418go0qRpAvOEASp-1" target="zpxudrFcBU-MMzCYJGep-28" edge="1">
          <mxGeometry relative="1" as="geometry" />
        </mxCell>
        <mxCell id="ZmAE418go0qRpAvOEASp-1" value="Student" style="shape=umlActor;verticalLabelPosition=bottom;verticalAlign=top;html=1;outlineConnect=0;" parent="1" vertex="1">
          <mxGeometry x="357.5" y="10" width="30" height="60" as="geometry" />
        </mxCell>
        <mxCell id="zpxudrFcBU-MMzCYJGep-19" style="edgeStyle=none;curved=1;rounded=0;orthogonalLoop=1;jettySize=auto;html=1;exitX=1;exitY=0.3333333333333333;exitDx=0;exitDy=0;exitPerimeter=0;entryX=0;entryY=0.5;entryDx=0;entryDy=0;fontSize=12;startSize=8;endSize=8;endArrow=none;endFill=0;" parent="1" source="ZmAE418go0qRpAvOEASp-2" target="zpxudrFcBU-MMzCYJGep-15" edge="1">
          <mxGeometry relative="1" as="geometry" />
        </mxCell>
        <mxCell id="zpxudrFcBU-MMzCYJGep-34" style="edgeStyle=none;curved=1;rounded=0;orthogonalLoop=1;jettySize=auto;html=1;exitX=1;exitY=0.3333333333333333;exitDx=0;exitDy=0;exitPerimeter=0;entryX=0;entryY=0.5;entryDx=0;entryDy=0;fontSize=12;startSize=8;endSize=8;endArrow=none;endFill=0;" parent="1" source="ZmAE418go0qRpAvOEASp-2" target="zpxudrFcBU-MMzCYJGep-26" edge="1">
          <mxGeometry relative="1" as="geometry" />
        </mxCell>
        <mxCell id="zpxudrFcBU-MMzCYJGep-35" style="edgeStyle=none;curved=1;rounded=0;orthogonalLoop=1;jettySize=auto;html=1;exitX=1;exitY=0.3333333333333333;exitDx=0;exitDy=0;exitPerimeter=0;entryX=0;entryY=0.5;entryDx=0;entryDy=0;fontSize=12;startSize=8;endSize=8;endArrow=none;endFill=0;" parent="1" source="ZmAE418go0qRpAvOEASp-2" target="zpxudrFcBU-MMzCYJGep-27" edge="1">
          <mxGeometry relative="1" as="geometry" />
        </mxCell>
        <mxCell id="zpxudrFcBU-MMzCYJGep-36" style="edgeStyle=none;curved=1;rounded=0;orthogonalLoop=1;jettySize=auto;html=1;entryX=0;entryY=0.5;entryDx=0;entryDy=0;fontSize=12;startSize=8;endSize=8;endArrow=none;endFill=0;" parent="1" target="zpxudrFcBU-MMzCYJGep-29" edge="1">
          <mxGeometry relative="1" as="geometry">
            <mxPoint x="50" y="410" as="sourcePoint" />
          </mxGeometry>
        </mxCell>
        <mxCell id="ZmAE418go0qRpAvOEASp-2" value="Administrator" style="shape=umlActor;verticalLabelPosition=bottom;verticalAlign=top;html=1;outlineConnect=0;" parent="1" vertex="1">
          <mxGeometry x="20" y="390" width="30" height="60" as="geometry" />
        </mxCell>
        <mxCell id="zpxudrFcBU-MMzCYJGep-1" value="Receive Notifications" style="ellipse;whiteSpace=wrap;html=1;" parent="1" vertex="1">
          <mxGeometry x="392.5" y="140" width="157.5" height="80" as="geometry" />
        </mxCell>
        <mxCell id="zpxudrFcBU-MMzCYJGep-8" value="Make Payment" style="ellipse;whiteSpace=wrap;html=1;" parent="1" vertex="1">
          <mxGeometry x="790" y="140" width="157.5" height="80" as="geometry" />
        </mxCell>
        <mxCell id="zpxudrFcBU-MMzCYJGep-9" value="View Student Profile" style="ellipse;whiteSpace=wrap;html=1;" parent="1" vertex="1">
          <mxGeometry y="140" width="157.5" height="80" as="geometry" />
        </mxCell>
        <mxCell id="zpxudrFcBU-MMzCYJGep-10" value="View Financial Information" style="ellipse;whiteSpace=wrap;html=1;" parent="1" vertex="1">
          <mxGeometry x="580" y="140" width="157.5" height="80" as="geometry" />
        </mxCell>
        <mxCell id="zpxudrFcBU-MMzCYJGep-15" value="Login" style="ellipse;whiteSpace=wrap;html=1;" parent="1" vertex="1">
          <mxGeometry x="387.5" y="420" width="157.5" height="80" as="geometry" />
        </mxCell>
        <mxCell id="zpxudrFcBU-MMzCYJGep-22" style="edgeStyle=none;curved=1;rounded=0;orthogonalLoop=1;jettySize=auto;html=1;fontSize=12;startSize=8;endSize=8;dashed=1;endArrow=open;endFill=0;entryX=1;entryY=0.5;entryDx=0;entryDy=0;" parent="1" source="zpxudrFcBU-MMzCYJGep-20" target="zpxudrFcBU-MMzCYJGep-15" edge="1">
          <mxGeometry relative="1" as="geometry">
            <mxPoint x="540" y="460" as="targetPoint" />
          </mxGeometry>
        </mxCell>
        <mxCell id="zpxudrFcBU-MMzCYJGep-20" value="Password Recovery" style="ellipse;whiteSpace=wrap;html=1;" parent="1" vertex="1">
          <mxGeometry x="700" y="420" width="157.5" height="80" as="geometry" />
        </mxCell>
        <mxCell id="zpxudrFcBU-MMzCYJGep-26" value="Student Registration" style="ellipse;whiteSpace=wrap;html=1;" parent="1" vertex="1">
          <mxGeometry x="150" y="340" width="157.5" height="80" as="geometry" />
        </mxCell>
        <mxCell id="zpxudrFcBU-MMzCYJGep-27" value="Manage Database Tables" style="ellipse;whiteSpace=wrap;html=1;" parent="1" vertex="1">
          <mxGeometry x="157.5" y="570" width="157.5" height="80" as="geometry" />
        </mxCell>
        <mxCell id="zpxudrFcBU-MMzCYJGep-28" value="Update Student Profile" style="ellipse;whiteSpace=wrap;html=1;" parent="1" vertex="1">
          <mxGeometry x="210" y="140" width="157.5" height="80" as="geometry" />
        </mxCell>
        <mxCell id="zpxudrFcBU-MMzCYJGep-29" value="Post Announcements" style="ellipse;whiteSpace=wrap;html=1;" parent="1" vertex="1">
          <mxGeometry x="157.5" y="470" width="157.5" height="80" as="geometry" />
        </mxCell>
        <mxCell id="Gy4dSIsxVLy0F7bwYm_L-1" value="" style="endArrow=none;html=1;rounded=0;exitX=0.5;exitY=0;exitDx=0;exitDy=0;" parent="1" source="zpxudrFcBU-MMzCYJGep-1" edge="1">
          <mxGeometry width="50" height="50" relative="1" as="geometry">
            <mxPoint x="470" y="180" as="sourcePoint" />
            <mxPoint x="370" y="90" as="targetPoint" />
          </mxGeometry>
        </mxCell>
        <mxCell id="Gy4dSIsxVLy0F7bwYm_L-2" style="edgeStyle=none;curved=1;rounded=0;orthogonalLoop=1;jettySize=auto;html=1;fontSize=12;startSize=8;endSize=8;dashed=1;endArrow=open;endFill=0;entryX=0.571;entryY=1;entryDx=0;entryDy=0;entryPerimeter=0;" parent="1" target="zpxudrFcBU-MMzCYJGep-9" edge="1">
          <mxGeometry relative="1" as="geometry">
            <mxPoint x="470" y="420" as="sourcePoint" />
            <mxPoint x="181.25" y="300" as="targetPoint" />
          </mxGeometry>
        </mxCell>
        <mxCell id="Gy4dSIsxVLy0F7bwYm_L-3" style="edgeStyle=none;curved=1;rounded=0;orthogonalLoop=1;jettySize=auto;html=1;fontSize=12;startSize=8;endSize=8;dashed=1;endArrow=open;endFill=0;exitX=0.5;exitY=0;exitDx=0;exitDy=0;entryX=0.5;entryY=1;entryDx=0;entryDy=0;" parent="1" source="zpxudrFcBU-MMzCYJGep-15" target="zpxudrFcBU-MMzCYJGep-28" edge="1">
          <mxGeometry relative="1" as="geometry">
            <mxPoint x="611" y="471" as="sourcePoint" />
            <mxPoint x="260" y="260" as="targetPoint" />
          </mxGeometry>
        </mxCell>
        <mxCell id="Gy4dSIsxVLy0F7bwYm_L-4" style="edgeStyle=none;curved=1;rounded=0;orthogonalLoop=1;jettySize=auto;html=1;fontSize=12;startSize=8;endSize=8;dashed=1;endArrow=open;endFill=0;exitX=0.5;exitY=0;exitDx=0;exitDy=0;entryX=0.5;entryY=1;entryDx=0;entryDy=0;" parent="1" source="zpxudrFcBU-MMzCYJGep-15" target="zpxudrFcBU-MMzCYJGep-1" edge="1">
          <mxGeometry relative="1" as="geometry">
            <mxPoint x="540" y="320" as="sourcePoint" />
            <mxPoint x="440" y="280" as="targetPoint" />
          </mxGeometry>
        </mxCell>
        <mxCell id="Gy4dSIsxVLy0F7bwYm_L-5" style="edgeStyle=none;curved=1;rounded=0;orthogonalLoop=1;jettySize=auto;html=1;fontSize=12;startSize=8;endSize=8;dashed=1;endArrow=open;endFill=0;exitX=0.5;exitY=0;exitDx=0;exitDy=0;entryX=0.5;entryY=1;entryDx=0;entryDy=0;" parent="1" source="zpxudrFcBU-MMzCYJGep-15" target="zpxudrFcBU-MMzCYJGep-10" edge="1">
          <mxGeometry relative="1" as="geometry">
            <mxPoint x="549" y="300" as="sourcePoint" />
            <mxPoint x="660" y="260" as="targetPoint" />
          </mxGeometry>
        </mxCell>
        <mxCell id="Gy4dSIsxVLy0F7bwYm_L-6" style="edgeStyle=none;curved=1;rounded=0;orthogonalLoop=1;jettySize=auto;html=1;fontSize=12;startSize=8;endSize=8;dashed=1;endArrow=open;endFill=0;exitX=1;exitY=0;exitDx=0;exitDy=0;entryX=0.5;entryY=1;entryDx=0;entryDy=0;" parent="1" source="zpxudrFcBU-MMzCYJGep-15" target="zpxudrFcBU-MMzCYJGep-8" edge="1">
          <mxGeometry relative="1" as="geometry">
            <mxPoint x="870" y="300" as="sourcePoint" />
            <mxPoint x="840" y="340" as="targetPoint" />
          </mxGeometry>
        </mxCell>
        <mxCell id="Gy4dSIsxVLy0F7bwYm_L-15" style="edgeStyle=none;curved=1;rounded=0;orthogonalLoop=1;jettySize=auto;html=1;fontSize=12;startSize=8;endSize=8;dashed=1;endArrow=open;endFill=0;exitX=0;exitY=0;exitDx=0;exitDy=0;entryX=0.931;entryY=0.802;entryDx=0;entryDy=0;entryPerimeter=0;" parent="1" source="zpxudrFcBU-MMzCYJGep-15" target="zpxudrFcBU-MMzCYJGep-26" edge="1">
          <mxGeometry relative="1" as="geometry">
            <mxPoint x="350" y="370" as="sourcePoint" />
            <mxPoint x="300" y="430" as="targetPoint" />
          </mxGeometry>
        </mxCell>
        <mxCell id="Gy4dSIsxVLy0F7bwYm_L-17" style="edgeStyle=none;curved=1;rounded=0;orthogonalLoop=1;jettySize=auto;html=1;entryX=1;entryY=0.5;entryDx=0;entryDy=0;fontSize=12;startSize=8;endSize=8;dashed=1;endArrow=open;endFill=0;exitX=0;exitY=1;exitDx=0;exitDy=0;" parent="1" source="zpxudrFcBU-MMzCYJGep-15" target="zpxudrFcBU-MMzCYJGep-27" edge="1">
          <mxGeometry relative="1" as="geometry">
            <mxPoint x="430" y="520" as="sourcePoint" />
            <mxPoint x="517" y="850" as="targetPoint" />
          </mxGeometry>
        </mxCell>
        <mxCell id="Gy4dSIsxVLy0F7bwYm_L-22" value="&amp;lt;&amp;lt;extend&amp;gt;&amp;gt;" style="text;html=1;whiteSpace=wrap;strokeColor=none;fillColor=none;align=center;verticalAlign=middle;rounded=0;rotation=0;" parent="1" vertex="1">
          <mxGeometry x="610" y="420" width="60" height="30" as="geometry" />
        </mxCell>
        <mxCell id="Hq-vUjxm7rfXs1AnxByT-1" value="&amp;lt;&amp;lt;extend&amp;gt;&amp;gt;" style="text;html=1;whiteSpace=wrap;strokeColor=none;fillColor=none;align=center;verticalAlign=middle;rounded=0;rotation=0;" vertex="1" parent="1">
          <mxGeometry x="628.75" y="280" width="60" height="30" as="geometry" />
        </mxCell>
        <mxCell id="Hq-vUjxm7rfXs1AnxByT-2" value="&amp;lt;&amp;lt;extend&amp;gt;&amp;gt;" style="text;html=1;whiteSpace=wrap;strokeColor=none;fillColor=none;align=center;verticalAlign=middle;rounded=0;rotation=0;" vertex="1" parent="1">
          <mxGeometry x="520" y="280" width="60" height="30" as="geometry" />
        </mxCell>
        <mxCell id="Hq-vUjxm7rfXs1AnxByT-3" value="&amp;lt;&amp;lt;extend&amp;gt;&amp;gt;" style="text;html=1;whiteSpace=wrap;strokeColor=none;fillColor=none;align=center;verticalAlign=middle;rounded=0;rotation=0;" vertex="1" parent="1">
          <mxGeometry x="480" y="220" width="60" height="30" as="geometry" />
        </mxCell>
        <mxCell id="Hq-vUjxm7rfXs1AnxByT-4" value="&amp;lt;&amp;lt;extend&amp;gt;&amp;gt;" style="text;html=1;whiteSpace=wrap;strokeColor=none;fillColor=none;align=center;verticalAlign=middle;rounded=0;rotation=0;" vertex="1" parent="1">
          <mxGeometry x="307.5" y="220" width="60" height="30" as="geometry" />
        </mxCell>
        <mxCell id="Hq-vUjxm7rfXs1AnxByT-5" value="&amp;lt;&amp;lt;extend&amp;gt;&amp;gt;" style="text;html=1;whiteSpace=wrap;strokeColor=none;fillColor=none;align=center;verticalAlign=middle;rounded=0;rotation=0;" vertex="1" parent="1">
          <mxGeometry x="180" y="240" width="60" height="30" as="geometry" />
        </mxCell>
        <mxCell id="Hq-vUjxm7rfXs1AnxByT-6" value="&amp;lt;&amp;lt;extend&amp;gt;&amp;gt;" style="text;html=1;whiteSpace=wrap;strokeColor=none;fillColor=none;align=center;verticalAlign=middle;rounded=0;rotation=0;" vertex="1" parent="1">
          <mxGeometry x="332.5" y="390" width="60" height="30" as="geometry" />
        </mxCell>
        <mxCell id="Hq-vUjxm7rfXs1AnxByT-7" value="&amp;lt;&amp;lt;extend&amp;gt;&amp;gt;" style="text;html=1;whiteSpace=wrap;strokeColor=none;fillColor=none;align=center;verticalAlign=middle;rounded=0;rotation=0;" vertex="1" parent="1">
          <mxGeometry x="365" y="540" width="60" height="30" as="geometry" />
        </mxCell>
        <mxCell id="Hq-vUjxm7rfXs1AnxByT-8" value="&amp;lt;&amp;lt;extend&amp;gt;&amp;gt;" style="text;html=1;whiteSpace=wrap;strokeColor=none;fillColor=none;align=center;verticalAlign=middle;rounded=0;rotation=0;" vertex="1" parent="1">
          <mxGeometry x="307.5" y="470" width="60" height="30" as="geometry" />
        </mxCell>
        <mxCell id="Hq-vUjxm7rfXs1AnxByT-9" style="edgeStyle=none;curved=1;rounded=0;orthogonalLoop=1;jettySize=auto;html=1;entryX=1;entryY=0.5;entryDx=0;entryDy=0;fontSize=12;startSize=8;endSize=8;dashed=1;endArrow=open;endFill=0;" edge="1" parent="1" source="zpxudrFcBU-MMzCYJGep-15" target="zpxudrFcBU-MMzCYJGep-29">
          <mxGeometry relative="1" as="geometry">
            <mxPoint x="486" y="540" as="sourcePoint" />
            <mxPoint x="390" y="662" as="targetPoint" />
          </mxGeometry>
        </mxCell>
      </root>
    </mxGraphModel>
  </diagram>
</mxfile>
